
<svg id="logo" data-name='Layer 1' xmlns="http://www.w3.org/2000/svg" viewBox="0 0 1704.93 262">
    <defs></defs>
    <title>tipsterpoll</title>
    <path fill="#fff" d="M620-284.21v124.72H602.73V-284.21H559.49V-299.4H663.26v15.19Z" transform="translate(-133.4 363)"></path>
    <path fill="#fff" d="M771.56-299.4v15.47H738v109.07h33.54v15.37H687v-15.37h32.76V-283.93H687V-299.4Z" transform="translate(-133.4 363)"></path>
    <path fill="#fff" d="M824.5-159.49H806.72V-299.4h45.36a60.49,60.49,0,0,1,17.82,3,44.86,44.86,0,0,1,14.75,8.07,37.94,37.94,0,0,1,10,13.07,41.14,41.14,0,0,1,3.7,17.88,40.81,40.81,0,0,1-3.7,17.82,37.94,37.94,0,0,1-10,13,44.86,44.86,0,0,1-14.75,8.07,58,58,0,0,1-17.82,2.88H824.5Zm27.58-70.72a34.66,34.66,0,0,0,11.34-2,27,27,0,0,0,9-5.34,24.07,24.07,0,0,0,6-8.4,27.8,27.8,0,0,0,2.17-11.29,28.88,28.88,0,0,0-2.17-11.44,25.7,25.7,0,0,0-5.9-8.65,27,27,0,0,0-9.09-5.47,34.27,34.27,0,0,0-11.38-2H824.5v54.58Z" transform="translate(-133.4 363)"></path>
    <path fill="#fff" d="M993.47-205.71a26.76,26.76,0,0,0-7.54-7.49,49.85,49.85,0,0,0-10.14-5q-5.52-2-10.62-3.65a150.3,150.3,0,0,1-15-5.82,68.35,68.35,0,0,1-13.89-8.21,41.38,41.38,0,0,1-10.33-11.58,30,30,0,0,1-4-15.71,32.4,32.4,0,0,1,4-16.14,38.73,38.73,0,0,1,10.43-12,47,47,0,0,1,14.6-7.45,54.93,54.93,0,0,1,16.44-2.55,51.75,51.75,0,0,1,17.58,3,48.68,48.68,0,0,1,15,8.5,41.58,41.58,0,0,1,10.47,13.26,39.62,39.62,0,0,1,4.13,17.4H996.31a39.23,39.23,0,0,0-3-11,27.36,27.36,0,0,0-5.86-8.5,25.93,25.93,0,0,0-8.7-5.53,31.15,31.15,0,0,0-11.38-2,34.77,34.77,0,0,0-9.95,1.45,26.16,26.16,0,0,0-8.6,4.32,21.3,21.3,0,0,0-6.1,7.11,20.46,20.46,0,0,0-2.26,9.8,17.59,17.59,0,0,0,3.08,10.23,26.12,26.12,0,0,0,7.59,7.07,49.17,49.17,0,0,0,9.85,4.8q5.32,1.92,10,3.37a146.61,146.61,0,0,1,15.56,5.81,60.56,60.56,0,0,1,14.22,8.69,38.37,38.37,0,0,1,10.24,12A33.77,33.77,0,0,1,1015-195a31.48,31.48,0,0,1-4.18,16.43A37.2,37.2,0,0,1,1000-167a48.27,48.27,0,0,1-15,7.07,61.41,61.41,0,0,1-16.72,2.35,59.42,59.42,0,0,1-19.65-3.36,49.1,49.1,0,0,1-16.77-9.71,41.39,41.39,0,0,1-10-12.82,38.87,38.87,0,0,1-4-16.39H936a34,34,0,0,0,3.56,11.58,27.55,27.55,0,0,0,6.92,8.5,28.71,28.71,0,0,0,9.75,5.34,39.31,39.31,0,0,0,12.06,1.78,41.11,41.11,0,0,0,10.23-1.3,27.14,27.14,0,0,0,9-4.09,21.72,21.72,0,0,0,6.44-6.87,19.05,19.05,0,0,0,2.49-9.94A19.19,19.19,0,0,0,993.47-205.71Z" transform="translate(-133.4 363)"></path>
    <path fill="#fff" d="M1092.4-284.21v124.72h-17.3V-284.21h-43.24V-299.4h103.78v15.19Z" transform="translate(-133.4 363)"></path>
    <path fill="#fff" d="M1177.92-224.16v49.58H1246v15.09h-85.9V-299.4h85v15.19h-67.26v45h58.42v15.08Z" transform="translate(-133.4 363)"></path>
    <path fill="#fff" d="M1295.82-216.57v57.08h-17.68V-299.4h41a68.74,68.74,0,0,1,18.45,2.79,44.92,44.92,0,0,1,15.18,7.78,36.39,36.39,0,0,1,10.13,13,42.69,42.69,0,0,1,3.7,18.41,37.7,37.7,0,0,1-2,12.49,37.67,37.67,0,0,1-5.42,10.28,40.3,40.3,0,0,1-8.27,8.17,53.31,53.31,0,0,1-10.57,6.05l29.69,59.77-.09,1.15h-18.74l-27.48-57.08Zm23.83-14.6a36.93,36.93,0,0,0,11.24-1.88,28.47,28.47,0,0,0,9.32-5.14,24.6,24.6,0,0,0,6.25-8.21,25.94,25.94,0,0,0,2.3-11.2,29.18,29.18,0,0,0-2.21-11.77,23.79,23.79,0,0,0-6.15-8.5A26.75,26.75,0,0,0,1331-283a40.55,40.55,0,0,0-11.86-1.83h-23.35v53.62Z" transform="translate(-133.4 363)"></path>
    <path fill="#fff" d="M1415-159.49h-17.78V-299.4h45.35a60.61,60.61,0,0,1,17.83,3,45,45,0,0,1,14.75,8.07,38.06,38.06,0,0,1,10,13.07,41.28,41.28,0,0,1,3.7,17.88,41,41,0,0,1-3.7,17.82,38.07,38.07,0,0,1-10,13,45,45,0,0,1-14.75,8.07,58.06,58.06,0,0,1-17.83,2.88H1415Zm27.57-70.72a34.66,34.66,0,0,0,11.34-2,27,27,0,0,0,9-5.34,24,24,0,0,0,6-8.4,28,28,0,0,0,2.16-11.29,29.05,29.05,0,0,0-2.16-11.44,25.58,25.58,0,0,0-5.91-8.65,26.91,26.91,0,0,0-9.08-5.47,34.33,34.33,0,0,0-11.39-2H1415v54.58Z" transform="translate(-133.4 363)"></path>
    <path fill="#fff" d="M1603.35-206.24a84,84,0,0,1-3.7,14.75,65.46,65.46,0,0,1-6.39,13.26,47.79,47.79,0,0,1-9.27,10.76,41.27,41.27,0,0,1-12.35,7.26,43.82,43.82,0,0,1-15.62,2.64,43.76,43.76,0,0,1-15.61-2.64,41.15,41.15,0,0,1-12.35-7.26,47.89,47.89,0,0,1-9.32-10.81,64.63,64.63,0,0,1-6.44-13.3,81.14,81.14,0,0,1-3.84-14.71,100.56,100.56,0,0,1-1.34-15.08v-15.95a105.72,105.72,0,0,1,1.29-15.14,78.66,78.66,0,0,1,3.8-14.75,65.5,65.5,0,0,1,6.39-13.3,48.73,48.73,0,0,1,9.27-10.91,41.36,41.36,0,0,1,12.35-7.26,43.76,43.76,0,0,1,15.61-2.64,44.12,44.12,0,0,1,15.66,2.64,41.24,41.24,0,0,1,12.4,7.26,46.91,46.91,0,0,1,9.27,10.81,69.85,69.85,0,0,1,6.49,13.31,83.68,83.68,0,0,1,3.7,14.8,106.52,106.52,0,0,1,1.29,15.18v15.95A105.59,105.59,0,0,1,1603.35-206.24Zm-17-41.7a80.85,80.85,0,0,0-1.92-10.81,60.89,60.89,0,0,0-3.75-10.14,34.36,34.36,0,0,0-5.77-8.6,26.21,26.21,0,0,0-8.16-5.81,26,26,0,0,0-11-2.16,25.2,25.2,0,0,0-10.86,2.21,26.73,26.73,0,0,0-8.16,5.86,34.18,34.18,0,0,0-5.77,8.6,55.14,55.14,0,0,0-3.65,10.14,75.17,75.17,0,0,0-2.07,10.81q-.61,5.43-.72,10.32v16.15c.07,3.27.31,6.72.72,10.38a72.23,72.23,0,0,0,2.07,10.76,61.1,61.1,0,0,0,3.75,10.28,32.17,32.17,0,0,0,5.76,8.55,26,26,0,0,0,8.17,6,25.57,25.57,0,0,0,11,2.21,25.92,25.92,0,0,0,11-2.21,25.77,25.77,0,0,0,8.21-6,32.89,32.89,0,0,0,5.62-8.5,62.22,62.22,0,0,0,3.7-10.24,71.85,71.85,0,0,0,1.88-10.76q.52-5.47.62-10.47v-16.15C1587-240.85,1586.77-244.32,1586.39-247.94Z" transform="translate(-133.4 363)"></path>
    <path fill="#fff" d="M1720.24-174.58v15.09h-86.19V-299.4h17.77v124.82Z" transform="translate(-133.4 363)"></path>
    <path fill="#fff" d="M1838.33-174.58v15.09h-86.19V-299.4h17.78v124.82Z" transform="translate(-133.4 363)"></path>
    <rect fill='none' stroke='#fff' stroke-miterlimit='10' stroke-width='4px' x="2" y="2" width="336.66" height="258"></rect>
    <line fill='none' stroke='#fff' stroke-miterlimit='10' stroke-width='2px' x1="25.38" y1="152.67" x2="310.08" y2="152.67"></line>
    <rect fill='#09cc65' stroke='#fff' stroke-miterlimit='10' stroke-width='2px' x="25.38" y="101.33" width="41.34" height="51.33"></rect>
    <rect fill='#ef5350' stroke='#fff' stroke-miterlimit='10' stroke-width='2px' x="106.5" y="152.67" width="41.34" height="76"></rect>
    <rect fill='#09cc65' stroke='#fff' stroke-miterlimit='10' stroke-width='2px' x="187.62" y="34" width="41.34" height="118.67"></rect>
    <rect fill='#ef5350' stroke='#fff' stroke-miterlimit='10' stroke-width='2px' x="268.74" y="152.67" width="41.34" height="25.67"></rect>
  </svg>

